<?xml version="1.0" encoding="utf-8"?>
<!-- Generator: Adobe Illustrator 16.0.0, SVG Export Plug-In . SVG Version: 6.00 Build 0)  -->
<!DOCTYPE svg PUBLIC "-//W3C//DTD SVG 1.1//EN" "http://www.w3.org/Graphics/SVG/1.1/DTD/svg11.dtd">
<svg version="1.1" id="Layer_1" xmlns="http://www.w3.org/2000/svg" xmlns:xlink="http://www.w3.org/1999/xlink" x="0px" y="0px"
	 width="595.275px" height="841.89px" viewBox="0 0 595.275 841.89" enable-background="new 0 0 595.275 841.89"
	 xml:space="preserve">
<g id="Слой_x0020_1">
	<g id="_2128763418544">
		<path d="M244.545,644.656c10.97,2.295,1.928,3.061,21.005,3.061c7.03,0,10.828-3.117,15.675-3.402v3.262
			c-11.65,4.309-10.687,3.656-22.875,3.656C251.887,651.232,246.274,648.625,244.545,644.656z M290.126,648.681
			c6.945,1.189,13.408,6.234,29.339,2.098c10.063-2.637,15.505-7.824,20.607-13.408c7.739-8.533,13.011-22.309,16.356-34.471
			c0.906-3.373,2.012-12.217,3.061-14.285c2.637,11.025-3.911,18.936-5.782,28.828c-3.345,17.518-17.291,32.967-34.61,36.85
			c-4.734,1.049-12.161,1.049-17.15,0.623C296.419,654.462,291.997,652.451,290.126,648.681z M266.995,592.072
			c0.992-1.701,1.758-0.254,6.265-3.77c4.734-3.713,2.324-4.025,10.035-4.025c2.438,0,2.438,2.098,3.912,4.848
			c0.992,1.871,2.069,3.486,2.722,5.357c-3.09,4.592-11.027,5.924-15.109,17.914c-4.649,13.721,2.693,20.779,4.28,27.186
			c-7.965,1.105-2.041,2.521-17.858,2.521c-4.706,0-9.1-1.02-12.955-2.551c-5.244-2.125-6.038-3.514-9.099-6.717
			c-2.041-2.154-3.884-7.684-4.564-11.254c-2.721-14.316,4.819-24.066,20.069-26.363c4.365-0.68,10.261-1.105,14.258,0.17
			c4.28,1.391,6.832,4.451,10.658,5.357c-1.275-3.004-5.641-5.867-8.872-7.113c-0.766-0.313-1.134-0.342-1.871-0.596
			L266.995,592.072z M247.55,577.927c2.778-0.313,7.795,2.75,10.63,3.799c3.118,1.133,10.148,1.955,12.16,3.061
			c-5.074,2.24-7.398,4.734-14.683,3.26c-2.296-0.48-4.422-1.643-5.981-3.09C247.153,582.632,247.55,582.123,247.55,577.927z
			 M304.384,593.263c-6.774,0-12.273-3.09-12.217-9.553c11.141-0.766,26.078-7.398,32.938-15.477
			c2.268-2.666,4.706-7.145,7.059-9.016c1.19,1.561,1.729,7.824,2.211,10.035c0.085-0.113,0.198-0.453,0.227-0.369l1.871-5.611
			c8.362-0.313,16.44,9.949,17.149,18.34c0.709,8.873-2.863,22.109-5.67,29.621c-6.35,17.037-15.051,34.725-36.396,34.725h-8.135
			c-26.419,0-35.377-43.199-2.438-47.197c4.649-0.566,9.213-0.453,13.663,0.795c5.244,1.445,7.938,3.969,10.375,4.848
			c-1.645-4.904-10.46-7.201-11.792-8.477c1.134-1.814,1.275-0.85,4.28-2.664c3.401-2.07,9.213-6.605,9.213-11.197
			C321.817,583.455,318.699,593.263,304.384,593.263z M264.841,474.605c7.682-2.014,14.344,5.867,15.959,11.65
			c5.357,19.445-23.868,24.945-27.212,6.094C252.142,484.214,259.172,476.107,264.841,474.605z M326.522,503.404
			c-2.692,3.09-3.26,4.168-9.212,3.715c-15.846-1.248-24.832-22.678-23.103-38.324c0.595-5.33,2.466-16.301,5.357-19.561
			c1.36,2.07,1.785,5.301,2.948,7.625c3.458,6.975,7.795,11.992,12.528,17.66c1.9,2.268,2.608,2.863,4.111,5.953
			C320.825,483.931,326.069,500.826,326.522,503.404z M219.543,491.216c-4.932-4.168-2.325-13.125,0-18.482
			c4.96-11.537,11.593-10.574,11.593-5.273v3.828C231.137,478.8,224.589,490.195,219.543,491.216z M391.663,465.109
			c-1.162,5.215-5.641,6.604-2.41,7.568c1.248,0.396,6.209-2.947,7.711-3.686c5.329-2.607,12.218-3.004,18.113-4.904
			c11.707-3.74,26.419-15.619,32.088-11.934c-0.765,1.814-1.247,1.814-2.494,2.723c-1.049,0.764-1.956,1.615-2.92,2.352
			l-9.411,5.953c-1.105,0.879-1.247,2.607,0.143,3.174c4.394,1.844,14.824-8.135,19.417-10.941
			c3.826-2.352,10.941-4.082,12.16,4.564c-4.337,3.656-15.874,11.027-22.563,12.813c-7.852,2.098-7.767,5.896-2.522,5.158
			l8.476-2.578c3.401-1.389,6.973-3.063,10.006-4.848c2.693-1.588,6.803-3.969,9.666-5.188c8.93-3.713,18.227,11.48-5.103,19.361
			c-7.143,2.408-19.87,4.023-22.081,7.682c2.551,4.393,13.237,0.311,16.78-0.992c4.734-1.758,11.991-4.508,17.802-3.346
			c1.588,0.852,8.419,11.254-7.597,18.795c-19.36,9.127-50.57,5.867-43.823,15.873c4.166,6.18,12.132,11.338,12.613,18.086
			c0.822,11.537-10.232,15.504-15.646,7.512c-2.154-3.176-3.855-7.031-6.01-9.838c-5.953-7.766-11.339-9.637-17.064-14.088
			c-6.123-4.762-10.602-9.354-13.946-16.725c-2.268-4.902-1.588-8.504-2.835-12.387c-3.43-0.17-2.494,0.057-3.118,7.002
			c-0.312,3.77,0.057,5.271,0.396,8.9c-13.691-0.084-11.82-18.51-7.512-28.402C373.635,474.462,380.268,459.921,391.663,465.109z
			 M360.766,497.962c-6.832,0.084-28.29-15.676-32.344-19.105c-32.57-27.412-26.674-43.598-9.864-35.66
			c13.691,6.492,16.385,10.771,33.959,17.348c10.63,3.969,11.367,3.26,19.701,5.697c-2.268,4.961-5.217,9.016-7.512,14.117
			C362.665,484.867,360.992,492.406,360.766,497.962z M249.449,457.285c3.062-5.98,14.74-21.883,20.013-24.746
			c2.41-1.332,9.865,0.256,13.04,0.709c-0.284,1.219-7.682,10.771-9.1,12.84c-2.693,3.969-6.208,8.986-7.852,14.146
			C262.828,459.978,251.263,458.05,249.449,457.285z M258.123,433.615c-0.737,0.738-1.162,1.588-1.928,2.467l-6.435,7.428
			c-18.567,21.684-5.556,20.182,12.586,23.811c3.061,0.596,5.442,1.189,7.115-0.736c2.211-2.523,8.476-13.863,10.261-17.066
			c2.353-4.193,5.159-7.283,7.88-10.346c5.528-6.236,4.649-6.066,11.48-6.859c-1.927,6.15-6.292,11.225-9.354,22.422
			c-4.025,14.684-1.729,17.801-2.438,28.346c-0.17-3.797-6.123-10.119-8.447-11.65c-8.759-5.697-21.43-3.43-28.63,7.088
			c-3.146,4.592-3.798,10.432-2.863,17.205c1.559,11.48,22.564,26.391,36.595,7.881c4.11-5.414,3.969-7.795,4.848-15.449
			c1.842,7.568,8.73,16.611,13.322,19.928c3.146,2.24,6.605,4.508,11.254,5.5c2.58,0.566,5.556,0.709,8.277,0.453
			c2.977-0.283,3.799-1.389,6.15-1.955c0.908,15.307,2.467,24.717-4.535,37.586c-11.594,21.316-37.842,28.885-60.604,20.381
			c-18.964-7.086-37.275-26.674-40.847-46.885c-0.85-4.762-0.936-16.582-0.624-21.713c0.227-3.459,6.265-7.256,10.091-11.707
			c2.665-3.117,5.301-10.516,6.236-15.846c2.466-14.344-4.705-10.744,0.114-17.574c3.118-4.422,6.151-8.533,9.723-12.332
			c1.928-2.012,3.09-3.826,5.159-5.838C254.353,436.365,256.025,435.175,258.123,433.615z M316.658,411.591
			c1.219-4.536,14.372-17.49,18.397-18.907c2.041,2.522,9.779,12.954,10.346,14.854c-0.964,1.729-3.855,3.486-7.002,3.401
			c-4.053-0.142-4.818-2.778-7.652-3.033c-2.24,2.296-1.418,4.678-5.301,5.442C321.478,414.142,319.351,412.555,316.658,411.591z
			 M256.677,381.062c6.435,1.673,11.423,5.074,18.595,5.839c-0.17,3.827-1.162,7.938-2.608,10.971
			C267.08,409.578,258.265,385.965,256.677,381.062z M218.211,359.518c-1.417-1.332-1.19-3.6-1.445-6.065
			c7.285,1.162,9.524,6.095,25.767,5.867c6.321-0.113,8.391-2.522,13.011-2.834c3.628-0.228,9.666,1.077,13.549,1.53
			c12.529,1.531,17.15,0.766,27.751-2.098c10.715-2.892,7.399,10.998,1.36,17.178c-10.261,10.432-21.911,9.439-34.809,2.58
			c-3.884-2.069-6.038-4.224-8.759-6.576c-4.904-4.195-3.402-4.252-9.751-1.39C231.619,373.72,225.694,366.548,218.211,359.518z
			 M212.769,364.961c3.827,5.188,10.97,10.318,19.956,11.168c2.041,3.601,3.43,9.524,5.13,13.578
			c1.219,2.835,11.934,19.956,14.032,22.876c1.871,2.579,6.35,7.71,6.548,11.735c-2.154,1.814-7.994,6.719-10.148,7.598
			c-3.062-2.014-6.718-5.926-8.958-8.703c-0.936-1.162-1.105-1.305-2.324-2.466c-0.964-0.963-1.077-1.332-1.956-2.353
			c-1.474-1.813-2.353-2.749-3.969-4.648c-4.082-4.791-11.934-14.882-15.108-20.353c-4.706-8.164-23.046-39.714-24.01-47.197
			c2.325-1.502,9.156-3.686,12.246-3.884c6.123,5.812,4.847,2.637,5.131,10.602C209.537,358.157,210.302,361.588,212.769,364.961z
			 M354.245,320.627c0.794,4.28,2.354,8.191,3.516,12.473c0.879,3.26,0.482,4.024-1.502,5.584
			c-3.629,2.863-10.518,7.71-15.024,8.532c-4.762,0.851-9.524-1.53-11.509-3.827c-7.795-9.014-2.125-20.977,4.168-19.134
			c3.6,1.049,3.6,5.499,11.366,2.92C349.37,325.843,351.468,322.753,354.245,320.627z M280.262,389.197
			c3.288-1.135,7.908,0.283,16.157-3.969c10.262-5.301,15.42-13.465,15.393-25.144c-0.086-18.567-12.359-13.323-23.557-10.375
			c-6.718,1.786-11.338,1.475-18.396,1.531c-10.233,0.113-28.914,1.7-37.361-1.247c-9.865-3.402-17.773-10.233-21.543-18.709
			c-6.406-14.542,3.374-34.299,20.551-35.518c13.238-0.936,20.154,2.353,29.877,10.035c5.612,4.45,6.491,10.204,9.439,10.233
			c1.644-2.92-2.495-7.994-2.154-11.367c0.227-2.353,3.061-8.107,4.025-10.744c2.041-5.527,5.329-21.316-7.398-15.987l5.045-9.411
			c2.552,0.708,8.164,3.6,10.942,4.904c13.266,6.18,17.603,8.759,29.736,16.753c9.382,6.151,16.554,14.825,27.496,18.992
			c5.584,2.126,7.823,1.19,13.152,2.154c0.255,2.636-2.494,4.62-3.911,5.896c-1.645,1.474-3.176,3.032-6.01,3.741
			c-3.203-1.814-6.52-5.669-11.82-3.912c-8.164,2.722-12.586,12.501-10.035,21.771c3.629,13.294,19.162,20.948,29.99,12.643
			c6.492-4.989,9.809-11.056,22.564-10.092c8.674,0.681,15.874,7.853,17.121,15.931c1.701,11.027-2.835,19.418-7.795,25.059
			c-7.768,8.844-23.642,14.201-36.397,7.653c-6.435-3.288-5.952-6.122-7.937-8.476c-6.633,0.369-20.324,13.691-23.244,17.15
			c-1.275,1.502-2.863,3.883-4.252,5.782c-7.966,10.913-9.582,17.688-10.828,19.473c-6.208,0.738-9.922,1.561-16.215,0.682
			c-4.932-0.709-10.545-1.73-15.534-2.127c-0.793-9.581-8.873-16.1-12.841-22.138c-3.203-4.932-9.751-17.008-11.14-23.442
			l5.527-1.445c3.373,4.705,0.992-0.794,2.863,7.058C257.046,404.702,276.406,418.705,280.262,389.197z M222.747,248.457
			c1.389-4.592,11.48-7.653,16.895-8.646c6.066-1.134,17.376-0.482,23.726,0.255c14.4,1.672,26.447,6.435,37.729,12.132
			c11.593,5.84,13.775,8.759,22.081,15.279c6.634,5.216,12.388,13.465,17.149,20.24c1.588,2.268,7.285,11.14,8.221,13.89
			l0.085,2.154c-7.88,2.863-25.625-12.161-29.679-15.279c-8.447-6.492-17.433-11.934-27.978-17.575
			c-10.063-5.357-19.871-10.177-31.606-13.946C238.479,250.271,242.249,252.425,222.747,248.457z M152.249,285.647
			c0.227-3.146-4.904-6.435-6.803-8.192c-19.361-17.887-9.241-33.505-0.766-31.805c4.309,0.851,10.772,21.033,19.219,26.334
			c9.297,5.811-1.333-10.12-1.531-10.488c-1.786-3.345-2.778-7.313-3.685-11.168c-5.216-22.195,12.869-26.476,18.142-18.624
			c1.956,2.948,2.58,7.852,2.92,11.905c0.51,6.378,0.425,23.357,7.143,22.961c0.624-2.495,0.255-10.007,0.34-13.352
			c0.283-11.083,1.36-28.318,16.724-23.726c9.156,2.721,6.605,9.893,5.415,20.296c-0.652,5.584-0.511,6.52-2.863,11.026
			c-3.77,7.2-2.183,6.265-3.742,10.063c-5.244,1.53-7.568,2.183-11.338,5.017c-1.956,1.502-6.69,5.556-6.321,9.836
			c2.834,0.453,5.13-3.09,10.346-5.811c6.577-3.402,8.022-1.049,13.805-2.495c0.766-2.041,0.652-4.961,1.474-7.597l2.069-4.649
			c0.708-0.992,0.255-0.482,0.992-1.049l12.926,9.95c-1.36,6.435-2.636,0.68-2.636,13.294c-4.791,0.708-10.8,3.855-14.088,6.151
			c-8.986,6.293-12.926,15.959-12.898,27.241c0,3.231,0.199,6.01,1.021,8.985c0.709,2.58,2.041,4.848,2.495,7.342
			c-6.18,3.26-25.852,7.144-29.877,0.397c-0.822-1.333-2.494-5.953-1.247-7.796c1.559-2.381,23.386,2.58,21.118-5.839
			c-5.754-1.219-15.279,0.879-20.693-0.879c-6.094-1.984-16.016-9.383-18.737-13.38c-6.038-8.872-1.191-6.151-17.773-13.861
			c-5.414-2.522-8.589-6.406-11.877-9.694c-1.871-1.842-3.543-4.677-2.268-7.54c0.369-0.851,4.536-4.904,5.272-5.301
			C134.447,267.789,142.923,288.708,152.249,285.647z M282.897,238.337c0-8.022,0.51-13.181,4.422-18.936
			c2.778-4.139,6.945-8.759,12.529-10.941c13.861-5.386,26.221,4.422,28.828,15.165c4.225,17.263-9.723,32.315-14.541,29.934
			c-4.848-2.438-9.639-6.066-14.939-8.561C293.612,242.362,289.049,240.435,282.897,238.337z M272.183,236.523
			c0.454-10.12,4.904-18.312,9.099-25.569c4.706-8.107,9.27-12.756,16.413-17.631c18.851-12.897,37.134-2.976,48.501,8.022
			c10.147,9.808,18.766,26.391,25.88,42.633c9.979,22.762,9.241,31.918,9.241,58.706c3.316-1.021,2.636-1.247,3.062-4.933
			c0.283-2.353,0.652-4.62,0.851-6.916c9.354,1.871,18.142,13.039,20.069,23.471c2.098,11.565-4.621,25.37-12.246,30.274
			c-3.883-1.729-6.35-5.387-11.679-7.314c-6.944-2.522-14.542-0.85-16.78-1.389c-1.078-12.813-11.084-35.716-16.555-45.326
			c-1.729-3.033-4.139-6.18-6.236-9.099c-8.476-11.735-11.226-11.792-18.396-19.928c-1.701-1.928-2.098-1.389-3.516-3.997
			c3.912-3.373,5.018-2.296,9.581-10.375c9.156-16.214,4.848-32.797-8.872-41.357c-5.103-3.175-10.347-3.402-17.207-3.062
			c-6.236,0.284-10.913,3.43-13.946,6.321c-7.398,7.03-10.914,18.057-10.914,28.942L272.183,236.523z M260.73,227.253
			c-5.981-0.028-15.023-0.482-20.551,0.539c-6.066,1.134-10.942,3.713-16.81,5.018c-1.672-2.466-2.353-10.8-14.854-15.534
			c-11.509-4.365-17.121,0.907-23.499,4.252c-2.977-2.353-5.216-4.252-10.12-5.641c-10.743-3.062-22.053,4.025-26.391,11.849
			c-0.85,1.502-1.304,4.564-2.778,5.272c-4.706,0-7.483-0.396-11.282,1.758c-2.495,1.389-5.131,3.912-6.917,6.009
			c-4.989,5.754-5.584,10.8-5.584,20.239c-8.73,1.248-18.595,7.909-17.008,18.057c1.928,12.274,8.306,15.534,14.088,21.43
			c6.945,7.058,7.937,5.499,16.157,9.751c5.131,2.664,5.669,12.784,21.969,22.62c0.878,7.768,1.587,10.716,6.094,14.995
			c3.969,3.771,9.241,4.961,16.016,5.018c1.333,0.283,1.928,3.062,3.118,5.584l9.439,16.895
			c11.424,18.964,16.526,25.285,28.148,42.293c5.329,7.796,14.229,15.449,16.271,19.134l-6.18,7.172
			c-1.332,1.729-4.563,7.115-5.726,8.191c-2.523,2.324-5.698,0.256-13.918,13.352c-4.366,6.945-5.216,12.785-4.989,22.592
			c0.142,5.33,2.353,5.727,1.871,11.793c-1.049,13.266-0.567,23.385,3.288,36.424c2.211,7.514,5.726,12.473,9.071,18.285
			c3.146,5.471,8.674,9.807,13.153,14.145c4.62,4.506,2.069,3.627,0.652,9.467c-1.248,5.188,0.539,7.229,1.333,11.48
			c-7.059,6.322-7.852,5.273-12.785,15.393c-5.584,11.508-3.373,22.395,3.884,32.4c1.786,2.494,4.394,5.527,5.811,8.561
			c2.069,4.393,1.842,5.641,4.932,8.986c2.069,2.268,5.074,4.223,8.703,5.697c7.568,3.033,16.129,3.316,25.03,3.061
			c4.592-0.141,7.682-1.701,11.565-2.125c3.912-0.398,7.059,2.182,10.744,3.486c20.721,7.342,50.06,0.539,61.824-17.66
			c3.288-5.074,6.888-12.869,9.127-19.162c1.503-4.168,1.673-7.029,2.608-11.281c1.644-7.371,10.375-20.523,3.628-34.838
			c-2.012-4.309-3.741-4.877-5.782-8.164c-5.103-8.221-1.843-7.682-11.565-16.668c-1.275-1.191-2.494-2.154-4.224-3.006
			c-1.729-0.85-3.544-0.99-5.046-2.125c-6.123-4.621-0.17-5.896,0.539-21.996c0.425-10.545-1.105-17.406-1.701-27.242
			c2.183,0.596,7.455,3.686,9.949,4.961c6.236,3.146,5.131,9.469,15.223,15.477c4.167,2.467,8.476,1.561,13.322,1.162
			c3.855,4.225,3.033,4.734,9.411,9.186c11.537,8.021,12.076,7.115,19.021,18.85c5.556,9.326,13.323,15.137,24.804,11.197
			c10.289-3.543,14.598-13.096,14.145-23.527c-0.368-7.881-3.316-8.674-5.159-14.061c15.959-0.992,40.167-8.73,46.573-24.293
			c1.729-4.195,1.332-11.367-0.255-15.533c-1.105-2.947-2.353-2.977-1.021-6.322c3.884-9.807,0.709-19.643-7.455-24.52
			c-2.126-1.275-4.507-1.416-6.633-2.494c-3.175-7.059-7.087-10.941-17.008-10.318c-2.552,0.17-5.783-3.4-9.326-3.996
			c-12.218-2.07-25.768,11.99-40.933,15.533c-7.427,1.73-5.754,0.482-10.715-2.324c-9.581-5.385-19.588,1.701-22.195,1.957
			c-7.455,0.68-32.514-11.367-40.365-16.045c-5.811-3.43-11.849-7.541-20.013-8.221l0.992-4.449
			c4.309,1.615,10.432,2.551,15.251,0.453c2.664-1.162,3.032-2.07,4.932-3.715c2.807-2.38,2.268-0.538,6.633-0.34
			c5.357,0.199,9.95-2.21,12.926-4.988c3.601-3.402,5.812-6.095,3.799-13.04c7.087-0.368,12.586-1.36,18.596-3.884
			c5.188-2.182,10.232-5.924,13.039-9.496c3.231-4.109,6.18-8.248,8.617-13.89c3.316-7.653,1.928-12.188,1.53-20.607
			c16.073-4.989,33.676-45.836,5.443-67.72c-2.523-1.956-4.706-3.543-7.796-5.159c-3.458-1.786-1.672-1.701-2.749-10.091
			c-3.686-28.517-21.458-69.647-42.86-87.108c-10.091-8.249-22.988-12.756-40.195-11.622c-13.322,0.85-27.836,12.387-32.967,18.963
			C272.75,200.58,263.027,215.263,260.73,227.253z"/>
		<path fill="#FEC7C0" d="M361.134,380.977c-0.396,9.751-24.548-3.146-16.753-16.356c7.03-11.905,27.609-13.521,28.403-7.908
			c-2.522,1.814-11.027,0.624-14.712,4.025l6.831,3.005l-0.878,2.324c-3.657,0.736-14.797-4.904-15.563,4.592
			C347.896,377.632,355.181,379.559,361.134,380.977z M306.651,300.189c0,6.435-3.968,14.881-7.029,19.219
			c-6.491,9.24-12.586,4.648-11.849-3.203c0.652-6.492,3.628-14.485,6.463-19.446C298.177,289.871,306.651,286.129,306.651,300.189z
			 M265.294,277.937c12.728-5.329,9.439,10.46,7.398,15.987c-0.964,2.636-3.798,8.391-4.025,10.744
			c-0.34,3.373,3.798,8.447,2.154,11.367c-2.948-0.029-3.827-5.783-9.439-10.233c-9.723-7.682-16.64-10.97-29.877-10.035
			c-17.178,1.219-26.958,20.976-20.551,35.518c3.771,8.476,11.679,15.307,21.543,18.709c8.447,2.947,27.127,1.36,37.361,1.247
			c7.058-0.057,11.679,0.255,18.396-1.531c11.197-2.948,23.471-8.192,23.557,10.375c0.027,11.679-5.131,19.843-15.393,25.144
			c-8.249,4.252-12.869,2.834-16.157,3.969c-3.855,29.508-23.216,15.505-28.488-6.662c-1.871-7.852,0.51-2.353-2.863-7.058
			l-5.527,1.445c1.389,6.435,7.937,18.511,11.14,23.442c3.968,6.038,12.047,12.558,12.841,22.138
			c4.989,0.396,10.602,1.418,15.534,2.127c6.293,0.879,10.006,0.057,16.215-0.682c1.246-1.785,2.862-8.56,10.828-19.473
			c1.389-1.899,2.977-4.28,4.252-5.782c2.92-3.459,16.611-16.781,23.244-17.15c1.984,2.354,1.502,5.188,7.937,8.476
			c12.756,6.548,28.63,1.19,36.397-7.653c4.96-5.641,9.496-14.031,7.795-25.059c-1.247-8.078-8.447-15.25-17.121-15.931
			c-12.756-0.964-16.072,5.103-22.564,10.092c-10.828,8.306-26.361,0.651-29.99-12.643c-2.551-9.27,1.871-19.049,10.035-21.771
			c5.301-1.757,8.617,2.098,11.82,3.912c2.834-0.709,4.365-2.268,6.01-3.741c1.417-1.276,4.166-3.261,3.911-5.896
			c-5.329-0.964-7.568-0.028-13.152-2.154c-10.942-4.167-18.114-12.841-27.496-18.992c-12.133-7.994-16.47-10.573-29.736-16.753
			c-2.778-1.304-8.39-4.195-10.942-4.904L265.294,277.937z"/>
		<path fill="#305291" d="M258.123,433.615c-2.098,1.561-3.771,2.75-5.613,4.537c-2.069,2.012-3.231,3.826-5.159,5.838
			c-3.572,3.799-6.604,7.91-9.723,12.332c-4.819,6.83,2.353,3.23-0.114,17.574c-0.935,5.33-3.571,12.729-6.236,15.846
			c-3.827,4.451-9.865,8.248-10.091,11.707c-0.312,5.131-0.227,16.951,0.624,21.713c3.572,20.211,21.883,39.799,40.847,46.885
			c22.762,8.504,49.011,0.936,60.604-20.381c7.002-12.869,5.443-22.279,4.535-37.586c-2.352,0.566-3.174,1.672-6.15,1.955
			c-2.722,0.256-5.697,0.113-8.277-0.453c-4.648-0.992-8.107-3.26-11.254-5.5c-4.592-3.316-11.48-12.359-13.322-19.928
			c-0.879,7.654-0.737,10.035-4.848,15.449c-14.031,18.51-35.036,3.6-36.595-7.881c-0.935-6.773-0.283-12.613,2.863-17.205
			c7.2-10.518,19.871-12.785,28.63-7.088c2.324,1.531,8.277,7.854,8.447,11.65c0.708-10.545-1.587-13.662,2.438-28.346
			c3.062-11.197,7.427-16.271,9.354-22.422c-6.831,0.793-5.952,0.623-11.48,6.859c-2.721,3.063-5.527,6.152-7.88,10.346
			c-1.786,3.203-8.05,14.543-10.261,17.066c-1.672,1.926-4.054,1.332-7.115,0.736c-18.142-3.629-31.153-2.127-12.586-23.811
			l6.435-7.428C256.961,435.203,257.386,434.353,258.123,433.615z"/>
		<path fill="#33CC33" d="M272.183,236.523l6.35,1.474c0-10.885,3.515-21.912,10.914-28.942c3.033-2.891,7.71-6.038,13.946-6.321
			c6.86-0.34,12.104-0.113,17.207,3.062c13.72,8.561,18.028,25.143,8.872,41.357c-4.563,8.079-5.669,7.001-9.581,10.375
			c1.418,2.608,1.814,2.069,3.516,3.997c7.171,8.136,9.921,8.192,18.396,19.928c2.098,2.919,4.507,6.066,6.236,9.099
			c5.471,9.609,15.477,32.513,16.555,45.326c2.238,0.539,9.836-1.134,16.78,1.389c5.329,1.928,7.796,5.585,11.679,7.314
			c7.625-4.904,14.344-18.709,12.246-30.274c-1.928-10.432-10.715-21.6-20.069-23.471c-0.198,2.296-0.567,4.563-0.851,6.916
			c-0.426,3.686,0.255,3.912-3.062,4.933c0-26.788,0.737-35.943-9.241-58.706c-7.114-16.243-15.732-32.825-25.88-42.633
			c-11.367-10.998-29.65-20.919-48.501-8.022c-7.143,4.875-11.707,9.524-16.413,17.631
			C277.087,218.211,272.636,226.403,272.183,236.523z"/>
		<path fill="#FFFFFF" d="M152.249,285.647c-9.326,3.061-17.802-17.858-27.723-12.444c-0.737,0.397-4.904,4.45-5.272,5.301
			c-1.275,2.863,0.397,5.698,2.268,7.54c3.288,3.288,6.463,7.172,11.877,9.694c16.583,7.71,11.735,4.989,17.773,13.861
			c2.721,3.997,12.643,11.396,18.737,13.38c5.414,1.758,14.938-0.34,20.693,0.879c2.268,8.419-19.559,3.458-21.118,5.839
			c-1.247,1.843,0.425,6.463,1.247,7.796c4.025,6.746,23.698,2.862,29.877-0.397c-0.454-2.494-1.786-4.762-2.495-7.342
			c-0.822-2.976-1.021-5.754-1.021-8.985c-0.028-11.282,3.912-20.948,12.898-27.241c3.288-2.296,9.297-5.442,14.088-6.151
			c0-12.614,1.276-6.86,2.636-13.294l-12.926-9.95c-0.737,0.567-0.284,0.057-0.992,1.049l-2.069,4.649
			c-0.822,2.636-0.708,5.556-1.474,7.597c-5.783,1.446-7.228-0.907-13.805,2.495c-5.216,2.721-7.512,6.264-10.346,5.811
			c-0.369-4.28,4.365-8.334,6.321-9.836c3.77-2.834,6.094-3.487,11.338-5.017c1.559-3.799-0.028-2.863,3.742-10.063
			c2.353-4.507,2.211-5.442,2.863-11.026c1.19-10.403,3.741-17.575-5.415-20.296c-15.364-4.592-16.441,12.643-16.724,23.726
			c-0.085,3.345,0.283,10.857-0.34,13.352c-6.718,0.396-6.633-16.583-7.143-22.961c-0.34-4.054-0.964-8.958-2.92-11.905
			c-5.272-7.852-23.357-3.572-18.142,18.624c0.907,3.855,1.899,7.824,3.685,11.168c0.198,0.368,10.828,16.299,1.531,10.488
			c-8.447-5.301-14.91-25.483-19.219-26.334c-8.476-1.701-18.595,13.918,0.766,31.805
			C147.345,279.213,152.476,282.501,152.249,285.647z"/>
		<path fill="#FFFFFF" d="M404.646,491.046c0.255-2.41,1.616-2.693,4.195-3.459c4.11-1.219,17.149-3.629,17.234,2.891
			C426.189,498.728,407.877,494.617,404.646,491.046z M419.669,467.66c8.334-1.248,10.999,8.561-6.491,8.561
			c-1.758,0-5.754,0.652-6.463-0.793C405.185,472.394,415.871,468.226,419.669,467.66z M391.663,465.109
			c-11.396-5.188-18.028,9.354-21.686,17.66c-4.309,9.893-6.18,28.318,7.512,28.402c-0.34-3.629-0.708-5.131-0.396-8.9
			c0.624-6.945-0.312-7.172,3.118-7.002c1.247,3.883,0.567,7.484,2.835,12.387c3.345,7.371,7.823,11.963,13.946,16.725
			c5.726,4.451,11.111,6.322,17.064,14.088c2.154,2.807,3.855,6.662,6.01,9.838c5.414,7.992,16.469,4.025,15.646-7.512
			c-0.481-6.748-8.447-11.906-12.613-18.086c-6.747-10.006,24.463-6.746,43.823-15.873c16.016-7.541,9.185-17.943,7.597-18.795
			c-5.811-1.162-13.067,1.588-17.802,3.346c-3.543,1.303-14.229,5.385-16.78,0.992c2.211-3.658,14.938-5.273,22.081-7.682
			c23.329-7.881,14.032-23.074,5.103-19.361c-2.863,1.219-6.973,3.6-9.666,5.188c-3.033,1.785-6.604,3.459-10.006,4.848
			l-8.476,2.578c-5.244,0.738-5.329-3.061,2.522-5.158c6.689-1.785,18.227-9.156,22.563-12.813
			c-1.219-8.646-8.334-6.916-12.16-4.564c-4.593,2.807-15.023,12.785-19.417,10.941c-1.39-0.566-1.248-2.295-0.143-3.174
			l9.411-5.953c0.964-0.736,1.871-1.588,2.92-2.352c1.247-0.908,1.729-0.908,2.494-2.723c-5.669-3.686-20.381,8.193-32.088,11.934
			c-5.896,1.9-12.784,2.297-18.113,4.904c-1.502,0.738-6.463,4.082-7.711,3.686C386.022,471.712,390.501,470.324,391.663,465.109z"
			/>
		<path fill="#663333" d="M304.384,593.263c14.315,0,17.434-9.809,22.338-11.197c0,4.592-5.812,9.127-9.213,11.197
			c-3.005,1.814-3.146,0.85-4.28,2.664c1.332,1.275,10.147,3.572,11.792,8.477c-2.438-0.879-5.131-3.402-10.375-4.848
			c-4.45-1.248-9.014-1.361-13.663-0.795c-32.938,3.998-23.981,47.197,2.438,47.197h8.135c21.346,0,30.047-17.688,36.396-34.725
			c2.807-7.512,6.379-20.748,5.67-29.621c-0.709-8.391-8.787-18.652-17.149-18.34l-1.871,5.611
			c-0.028-0.084-0.142,0.256-0.227,0.369c-0.481-2.211-1.021-8.475-2.211-10.035c-2.353,1.871-4.791,6.35-7.059,9.016
			c-6.86,8.078-21.798,14.711-32.938,15.477C292.11,590.173,297.609,593.263,304.384,593.263z"/>
		<path fill="#33CC33" d="M222.747,248.457c19.502,3.969,15.732,1.814,36.624,8.504c11.735,3.77,21.543,8.589,31.606,13.946
			c10.545,5.641,19.53,11.083,27.978,17.575c4.054,3.118,21.799,18.142,29.679,15.279l-0.085-2.154
			c-0.936-2.75-6.633-11.622-8.221-13.89c-4.762-6.775-10.516-15.024-17.149-20.24c-8.306-6.52-10.488-9.439-22.081-15.279
			c-11.282-5.697-23.33-10.46-37.729-12.132c-6.35-0.737-17.66-1.389-23.726-0.255C234.227,240.803,224.136,243.864,222.747,248.457
			z"/>
		<path fill="#663333" d="M279.609,600.746c-3.827-0.906-6.378-3.967-10.658-5.357c-3.997-1.275-9.893-0.85-14.258-0.17
			c-15.25,2.297-22.791,12.047-20.069,26.363c0.68,3.57,2.523,9.1,4.564,11.254c3.062,3.203,3.855,4.592,9.099,6.717
			c3.855,1.531,8.249,2.551,12.955,2.551c15.817,0,9.893-1.416,17.858-2.521c-1.587-6.406-8.929-13.465-4.28-27.186
			c4.082-11.99,12.019-13.322,15.109-17.914c-0.652-1.871-1.729-3.486-2.722-5.357c-1.474-2.75-1.474-4.848-3.912-4.848
			c-7.71,0-5.301,0.313-10.035,4.025c-4.507,3.516-5.272,2.068-6.265,3.77l1.871,0.965c0.737,0.254,1.105,0.283,1.871,0.596
			C273.969,594.878,278.334,597.742,279.609,600.746z"/>
		<path fill="#33CC33" d="M360.766,497.962c0.227-5.557,1.899-13.096,3.94-17.604c2.295-5.102,5.244-9.156,7.512-14.117
			c-8.334-2.438-9.071-1.729-19.701-5.697c-17.574-6.576-20.268-10.855-33.959-17.348c-16.81-7.938-22.706,8.248,9.864,35.66
			C332.476,482.287,353.934,498.046,360.766,497.962z"/>
		<path fill="#33CC33" d="M191.962,346.195c0.964,7.483,19.304,39.033,24.01,47.197c3.175,5.471,11.027,15.562,15.108,20.353
			c1.616,1.899,2.495,2.835,3.969,4.648c0.879,1.021,0.992,1.39,1.956,2.353c1.219,1.162,1.389,1.304,2.324,2.466
			c2.239,2.777,5.896,6.689,8.958,8.703c2.154-0.879,7.994-5.783,10.148-7.598c-0.198-4.025-4.677-9.156-6.548-11.735
			c-2.098-2.92-12.813-20.041-14.032-22.876c-1.701-4.054-3.089-9.978-5.13-13.578c-8.986-0.85-16.129-5.98-19.956-11.168
			c-2.466-3.373-3.231-6.804-3.43-12.048c-0.284-7.965,0.992-4.79-5.131-10.602C201.118,342.51,194.287,344.693,191.962,346.195z"/>
		<path fill="#663333" d="M216.766,353.452c0.255,2.466,0.028,4.733,1.445,6.065c7.483,7.03,13.408,14.202,26.674,8.192
			c6.35-2.862,4.848-2.806,9.751,1.39c2.721,2.353,4.875,4.507,8.759,6.576c12.897,6.859,24.548,7.852,34.809-2.58
			c6.039-6.18,9.355-20.069-1.36-17.178c-10.602,2.863-15.222,3.629-27.751,2.098c-3.883-0.453-9.921-1.758-13.549-1.53
			c-4.621,0.312-6.69,2.721-13.011,2.834C226.29,359.547,224.05,354.614,216.766,353.452z"/>
		<path fill="#FFFFFF" d="M290.183,238.224c0.085-1.531,10.602-22.677,12.273-25.257c2.467-0.255,9.156,2.835,10.688,4.309
			c-0.396,3.402-6.86,12.614-8.334,16.979l11.055,3.628c1.078,0.539,0.34,0,1.191,0.822c0.141,1.389-3.657,8.674-4.734,9.978
			C310.11,248.882,291.118,238.989,290.183,238.224z M282.897,238.337c6.151,2.098,10.715,4.025,16.299,6.662
			c5.301,2.495,10.092,6.123,14.939,8.561c4.818,2.381,18.766-12.671,14.541-29.934c-2.607-10.743-14.967-20.551-28.828-15.165
			c-5.584,2.183-9.751,6.803-12.529,10.941C283.408,225.156,282.897,230.315,282.897,238.337z"/>
		<path fill="#33CC33" d="M326.522,503.404c-0.453-2.578-5.697-19.473-7.369-22.932c-1.503-3.09-2.211-3.686-4.111-5.953
			c-4.733-5.668-9.07-10.686-12.528-17.66c-1.163-2.324-1.588-5.555-2.948-7.625c-2.892,3.26-4.762,14.23-5.357,19.561
			c-1.729,15.646,7.257,37.076,23.103,38.324C323.263,507.572,323.83,506.494,326.522,503.404z"/>
		<path fill="#FFFF00" d="M264.841,474.605c-5.669,1.502-12.699,9.609-11.253,17.744c3.345,18.852,32.57,13.352,27.212-6.094
			C279.185,480.472,272.523,472.591,264.841,474.605z"/>
		<path fill="#663333" d="M354.245,320.627c-2.777,2.126-4.875,5.216-8.985,6.548c-7.767,2.579-7.767-1.871-11.366-2.92
			c-6.293-1.843-11.963,10.12-4.168,19.134c1.984,2.297,6.747,4.678,11.509,3.827c4.507-0.822,11.396-5.669,15.024-8.532
			c1.984-1.56,2.381-2.324,1.502-5.584C356.599,328.818,355.039,324.907,354.245,320.627z"/>
		<path d="M290.183,238.224c0.936,0.766,19.928,10.658,22.139,10.46c1.077-1.304,4.875-8.589,4.734-9.978
			c-0.852-0.822-0.113-0.284-1.191-0.822l-11.055-3.628c1.474-4.365,7.938-13.578,8.334-16.979
			c-1.531-1.474-8.221-4.563-10.688-4.309C300.784,215.546,290.268,236.693,290.183,238.224z"/>
		<path fill="#33CC33" d="M249.449,457.285c1.814,0.766,13.379,2.693,16.101,2.949c1.644-5.16,5.159-10.178,7.852-14.146
			c1.417-2.068,8.816-11.621,9.1-12.84c-3.175-0.453-10.63-2.041-13.04-0.709C264.189,435.402,252.51,451.304,249.449,457.285z"/>
		<path d="M306.651,300.189c0-14.06-8.475-10.318-12.415-3.43c-2.835,4.961-5.811,12.954-6.463,19.446
			c-0.737,7.852,5.357,12.443,11.849,3.203C302.684,315.07,306.651,306.624,306.651,300.189z"/>
		<path fill="#663333" d="M316.658,411.591c2.692,0.964,4.819,2.551,8.788,1.757c3.883-0.765,3.061-3.146,5.301-5.442
			c2.834,0.255,3.6,2.892,7.652,3.033c3.146,0.085,6.038-1.673,7.002-3.401c-0.566-1.899-8.305-12.331-10.346-14.854
			C331.03,394.101,317.877,407.055,316.658,411.591z"/>
		<path d="M361.134,380.977c-5.953-1.418-13.238-3.345-12.671-10.318c0.766-9.496,11.905-3.855,15.563-4.592l0.878-2.324
			l-6.831-3.005c3.685-3.401,12.189-2.211,14.712-4.025c-0.794-5.612-21.373-3.997-28.403,7.908
			C336.586,377.83,360.737,390.728,361.134,380.977z"/>
		<path fill="#663333" d="M290.126,648.681c1.871,3.77,6.293,5.781,11.82,6.234c4.989,0.426,12.416,0.426,17.15-0.623
			c17.319-3.883,31.266-19.332,34.61-36.85c1.871-9.893,8.419-17.803,5.782-28.828c-1.049,2.068-2.154,10.912-3.061,14.285
			c-3.346,12.162-8.617,25.938-16.356,34.471c-5.103,5.584-10.545,10.771-20.607,13.408
			C303.534,654.916,297.071,649.871,290.126,648.681z"/>
		<path fill="#FFFF00" d="M219.543,491.216c5.045-1.021,11.593-12.416,11.593-19.928v-3.828c0-5.301-6.633-6.264-11.593,5.273
			C217.219,478.091,214.611,487.048,219.543,491.216z"/>
		<path fill="#FF0000" d="M275.272,386.9c-7.172-0.765-12.161-4.166-18.595-5.839c1.587,4.903,10.403,28.517,15.987,16.81
			C274.11,394.838,275.103,390.728,275.272,386.9z"/>
		<path d="M404.646,491.046c3.231,3.57,21.544,7.682,21.43-0.568c-0.085-6.52-13.124-4.109-17.234-2.891
			C406.262,488.353,404.9,488.636,404.646,491.046z"/>
		<path fill="#663333" d="M244.545,644.656c1.729,3.969,7.342,6.576,13.805,6.576c12.189,0,11.225,0.652,22.875-3.656v-3.262
			c-4.847,0.285-8.646,3.402-15.675,3.402C246.473,647.716,255.515,646.951,244.545,644.656z"/>
		<path fill="#663333" d="M255.657,588.046c7.285,1.475,9.609-1.02,14.683-3.26c-2.012-1.105-9.042-1.928-12.16-3.061
			c-2.835-1.049-7.852-4.111-10.63-3.799c0,4.195-0.397,4.705,2.126,7.029C251.234,586.404,253.36,587.566,255.657,588.046z"/>
		<path d="M419.669,467.66c-3.798,0.566-14.484,4.734-12.954,7.768c0.709,1.445,4.705,0.793,6.463,0.793
			C430.668,476.22,428.003,466.412,419.669,467.66z"/>
	</g>
</g>
</svg>
